/* XPM */
static char *dbc6fbc79f7c4fabb139ef0ad2c39495TznZX4CZuF2SzHUs[] = {
/* columns rows colors chars-per-pixel */
"20 20 2 1 ",
"  c black",
". c #FEFEFE",
/* pixels */
"                    ",
"                    ",
"                    ",
"                    ",
"      ..     ..     ",
"      ..     ..     ",
"                    ",
"                    ",
"                    ",
"                    ",
"  .             .   ",
"  .             .   ",
"  ..            .   ",
"   ..         ...   ",
"    ...........     ",
"       .    .       ",
"       .    .       ",
"                    ",
"                    ",
"                    "
};
