/* XPM */
static char *d372462f9fc6401197f2c764de75a3c8tYnufwsNHiG4cJaI[] = {
/* columns rows colors chars-per-pixel */
"20 20 2 1 ",
"  c #702F00",
". c #9B1313",
/* pixels */
"..... ....... ......",
"..... ....... ......",
"..... ....... ......",
"..... ....... ......",
"..... ....... ......",
"                    ",
".. ...... ....... ..",
".. ...... ....... ..",
".. ...... ....... ..",
".. ...... ....... ..",
"                    ",
"..... ....... ......",
"..... ....... ......",
"..... ....... ......",
"..... ....... ......",
"                    ",
".. ...... ....... ..",
".. ...... ....... ..",
".. ...... ....... ..",
".. ...... ....... .."
};
